<svg xmlns="http://www.w3.org/2000/svg" version="1.1" xmlns:xlink="http://www.w3.org/1999/xlink" xmlns:svgjs="http://svgjs.dev/svgjs" width="100%" height="100%" viewBox="0 0 1000 600"><rect width="1000" height="600" x="0" y="0" fill="#080812"/><g><circle r="166.66666666666666" cx="367.9690806070963" cy="390.19125271081805" fill="#eeeae1" transform="matrix(0.6209565809425163,0,0,0.6209565809425163,0,57.70818930859119)"/><path d="M316.25667538602215 455.5211066581699L316.25667538602215 455.5211066581699Q315.46956900451886 454.7340002766667 314.8792392183914 453.6376735310013Q314.2607984900674 452.5413467853361 313.8672452993157 450.7703574269536L313.8672452993157 450.7703574269536Q311.1123729640542 447.4251553055646 309.5381602010476 443.06795926509994Q307.93583649584446 438.7107632246353 307.345506709717 434.07245776220515Q306.7551769235895 429.434152299775 307.14873011434116 424.6834030685587Q307.5422833050928 419.9326538373424 308.55427722416846 415.80034533445007L308.55427722416846 415.80034533445007Q309.14460701029594 413.8044684384953 309.5381602010476 411.6399258893612L309.5381602010476 411.6399258893612Q310.5220431779267 407.87305963502405 311.5059261548058 404.218637149473Q312.4898091316849 400.56421466392203 314.48568602763976 398.20289551941215L314.48568602763976 398.20289551941215Q313.6704687039399 396.0102420280815 314.68246262301557 393.4521462881958Q315.66634559989467 390.8940505483101 316.65022857677377 388.7013970569795L316.65022857677377 388.7013970569795Q317.04378176752545 388.11106727085206 317.24055836290125 387.6331812535107Q317.43733495827706 387.1271842939729 317.63411155365293 386.7336311032213L317.63411155365293 386.7336311032213Q319.9954306981628 379.8183393228709 322.27241701608307 373.3809335598618Q324.5494033340033 366.97163873904924 326.71394588313734 361.040229935578L326.71394588313734 361.040229935578Q330.6775887328504 350.16129530551456 334.33201121840136 339.70402480839937Q337.9864337039524 329.2186433690876 340.9661935767863 317.3558257621451L340.9661935767863 317.3558257621451Q342.54040633979287 316.17516618989015 343.72106591204783 315.78161299913853L343.72106591204783 315.78161299913853Q344.11461910279945 315.58483640376267 344.70494888892694 315.38805980838686Q345.2952786750544 315.191283213011 346.11049599875423 315.191283213011L346.11049599875423 315.191283213011Q350.24280450164656 317.3558257621451 355.8931038831523 319.2392588893137Q361.5152923224616 321.1226920164823 365.4789351721746 321.1226920164823L365.4789351721746 321.1226920164823L368.82413729356364 324.07434094711965Q371.4103439756459 327.0541008199536 373.26566616061797 330.31497011475295Q375.14909928778656 333.5758394095523 374.36199290628326 338.6920308893237L374.36199290628326 338.6920308893237Q373.1813333340283 340.49113118990266 372.394226952525 340.8846843806543L372.394226952525 340.8846843806543Q371.1854564380735 345.4105460742982 369.80802027044274 348.86819196447345Q368.43058410281196 352.3539487968452 367.0531479351812 355.5023743228584L367.0531479351812 355.5023743228584Q365.4789351721746 359.07246398181974 364.0733880623473 362.6144426985846Q362.6959518947166 366.18453235754595 361.7120689178374 371.3288347795139L361.7120689178374 371.3288347795139Q360.53140934558246 372.7062709471447 360.22218898142046 373.6901539240238Q359.94107955945503 374.67403690090293 359.54752636870336 375.65791987778204L359.54752636870336 375.65791987778204Q359.1539731779517 376.838579450037 358.5355324496277 378.1316827910781Q357.94520266350025 379.4247861321192 356.7645430912453 380.40866910899837L356.7645430912453 380.40866910899837Q355.977436709742 386.5368545078454 354.4032239467354 390.38805358877227Q352.8290111837288 394.2392526696991 351.22668747852566 398.0061189240363L351.22668747852566 398.0061189240363Q348.47181514326417 404.9214107043867 346.11049599875423 411.72425871595084Q343.72106591204783 418.5552176697116 343.3275127212962 427.2414988084444L343.3275127212962 427.2414988084444Q345.68883186580604 426.65116902231694 347.6847087617608 426.65116902231694L347.6847087617608 426.65116902231694Q350.24280450164656 426.65116902231694 352.63223458835296 427.4382754038202L352.63223458835296 427.4382754038202Q359.7443029640792 423.8962966870554 368.12136373864996 423.1091903055521Q376.52653545541733 422.32208392404885 384.847374345595 422.125307328673L384.847374345595 422.125307328673Q391.7626661259454 422.125307328673 397.6940749294166 421.506866600349L397.6940749294166 421.506866600349Q399.6618408831749 422.9124137101763 400.25217066930236 422.9967465367659Q400.84250045542984 423.1091903055521 402.2199366230606 423.1091903055521L402.2199366230606 423.1091903055521Q402.81026640918805 423.1091903055521 403.4287071375121 423.1091903055521Q404.01903692363953 423.1091903055521 405.0029199005187 423.3059669009279L405.0029199005187 423.3059669009279Q407.7577922357802 426.06083923618945 410.34399891786245 427.1571659818548Q412.9020946577482 428.25349272752004 415.8818545305821 429.2373757043992L415.8818545305821 429.2373757043992Q418.43995027046776 430.2212586812783 420.91371318376383 431.3175854269436Q423.3874760970599 432.38580123041237 425.74879524156984 434.15679058879476L425.74879524156984 434.15679058879476L427.51978459995223 444.24861883735485Q429.12210830515534 446.4131613864889 428.9253317097795 447.2283787101888L428.9253317097795 447.2283787101888Q428.9253317097795 448.8025914731954 428.11011438607966 449.98325104545034L428.11011438607966 449.98325104545034L428.5317785190279 452.5413467853361Q424.7649122646907 453.3284531668393 423.5842526924357 454.2280033171288Q422.4035931201808 455.1275534674183 420.9980460103535 456.50498963504907L420.9980460103535 456.50498963504907Q418.83350346121944 456.7017662304249 416.8657375074612 456.7017662304249L416.8657375074612 456.7017662304249Q412.9020946577482 456.7017662304249 408.7416752126593 457.88242580267985L408.7416752126593 457.88242580267985Q402.81026640918805 455.7178832535457 395.69819803346184 455.7178832535457L395.69819803346184 455.7178832535457Q392.94332569820034 455.7178832535457 390.0760095941526 455.9146598489216Q387.2086934901049 456.11143644429745 384.45382115484335 456.50498963504907L384.45382115484335 456.50498963504907Q381.4740612820095 456.8985428258007 378.5224123513721 457.2077631899627Q375.54265247853823 457.4888726119282 372.59100354790087 457.4888726119282L372.59100354790087 457.4888726119282Q370.2015734611944 457.88242580267985 369.2176904843153 458.07920239805566Q368.23380750743615 458.27597899343147 367.24992453055705 458.66953218418314L367.24992453055705 458.66953218418314Q360.53140934558246 460.86218567551373 352.71656741494263 463.0267282246478Q344.9017254843028 465.19127077378187 337.0025507270733 465.19127077378187L337.0025507270733 465.19127077378187Q325.33650971550657 465.19127077378187 318.22444133978036 459.25986197031057L318.22444133978036 459.25986197031057Q317.43733495827706 457.4888726119282 317.04378176752545 456.8985428258007Q316.65022857677377 456.30821303967326 316.25667538602215 455.5211066581699Z " fill="#c9aa6e" transform="matrix(0.6209565809425163,0,0,0.6209565809425163,0,57.70818930859119)"/><path d="M626.945675328263 451.1474183625711L626.945675328263 451.1474183625711Q626.1831008520389 450.384843886347 625.6111699948708 449.32268658017773Q625.0120043349805 448.2605292740085 624.6307170968685 446.5447367025043L624.6307170968685 446.5447367025043Q621.9617064300842 443.30379517855187 620.4365574776359 439.0824007565971Q618.8841737224654 434.8610063346423 618.3122428652974 430.3672638854646Q617.7403120081294 425.8735214362869 618.1215992462414 421.2708397762201Q618.5028864843534 416.6681581161533 619.4833393823558 412.66464211597673L619.4833393823558 412.66464211597673Q620.0552702395239 410.73097112269426 620.4365574776359 408.633891313078L620.4365574776359 408.633891313078Q621.389775572916 404.9844277482913 622.3429936681962 401.4439033943937Q623.2962117634763 397.9033790404962 625.2298827567588 395.6156556118239L625.2298827567588 395.6156556118239Q624.4400734778123 393.4913409994853 625.4205263758149 391.01297395175703Q626.3737444710949 388.53460690402875 627.3269625663751 386.4102922916902L627.3269625663751 386.4102922916902Q627.7082498044871 385.83836143452214 627.8988934235431 385.37536978824323Q628.0895370425992 384.885143339242 628.2801806616551 384.50385610113L628.2801806616551 384.50385610113Q630.5679040903274 377.8040946314469 632.7739231108328 371.5673248080427Q634.9799421313382 365.35778978736084 637.0770219409545 359.6112464129579L637.0770219409545 359.6112464129579Q640.9171291247973 349.07137775943204 644.4576534786949 338.9400311467405Q647.9981778325923 328.78144973132675 650.885066921155 317.2883629825208L650.885066921155 317.2883629825208Q652.4102158736032 316.1445012681847 653.5540775879393 315.7632140300726L653.5540775879393 315.7632140300726Q653.9353648260515 315.57257041101656 654.5072956832195 315.38192679196055Q655.0792265403875 315.19128317290455 655.8690358193339 315.19128317290455L655.8690358193339 315.19128317290455Q659.8725518195104 317.2883629825208 665.3467471666904 319.11309476491414Q670.7937077111483 320.93782654730757 674.633814894991 320.93782654730757L674.633814894991 320.93782654730757L677.8747564189434 323.79748083314786Q680.380358269394 326.68436992171047 682.177855249065 329.84360703749604Q684.0025870314585 333.00284415328156 683.2400125552343 337.9595782487381L683.2400125552343 337.9595782487381Q682.0961508408982 339.70260562296465 681.3335763646742 340.08389286107666L681.3335763646742 340.08389286107666Q680.1624798476157 344.4686960993652 678.8279745142236 347.81857683420674Q677.4934691808314 351.1956923717706 676.1589638474392 354.24599027666693L676.1589638474392 354.24599027666693Q674.633814894991 357.70481022239767 673.2720747588766 361.13639536540603Q671.9375694254844 364.5952153111367 670.9843513302043 369.57918420931566L670.9843513302043 369.57918420931566Q669.8404896158681 370.9136895427078 669.540906785923 371.8669076379879Q669.2685587587 372.820125733268 668.887271520588 373.7733438285481L668.887271520588 373.7733438285481Q668.505984282476 374.9172055428843 667.9068186225857 376.17000646810953Q667.3348877654175 377.42280739333484 666.1910260510815 378.37602548861497L666.1910260510815 378.37602548861497Q665.4284515748573 384.313212482074 663.9033026224091 388.0443804550276Q662.378153669961 391.77554842798116 660.8257699147905 395.42501199276785L660.8257699147905 395.42501199276785Q658.1567592480062 402.12477346245095 655.8690358193339 408.7155957212449Q653.5540775879393 415.3336527827611 653.1727903498273 423.74920682394844L653.1727903498273 423.74920682394844Q655.4605137784996 423.1772759667803 657.3941847717821 423.1772759667803L657.3941847717821 423.1772759667803Q659.8725518195104 423.1772759667803 662.187510050905 423.9398504430044L662.187510050905 423.9398504430044Q669.0779151396441 420.508265299996 677.1938863508863 419.7456908237719Q685.3370923648506 418.9831163475478 693.3985939706481 418.79247272849176L693.3985939706481 418.79247272849176Q700.0983554403313 418.79247272849176 705.8448988147342 418.1933070686014L705.8448988147342 418.1933070686014Q707.7513350052943 419.5550472047159 708.3232658624624 419.63675161288273Q708.8951967196306 419.7456908237719 710.2297020530227 419.7456908237719L710.2297020530227 419.7456908237719Q710.8016329101907 419.7456908237719 711.4007985700812 419.7456908237719Q711.9727294272492 419.7456908237719 712.9259475225293 419.93633444282796L712.9259475225293 419.93633444282796Q715.5949581893136 422.60534510961224 718.1005600397642 423.66750241578154Q720.5789270874925 424.7296597219508 723.4658161760551 425.6828778172309L723.4658161760551 425.6828778172309Q725.9441832237834 426.63609591251105 728.3408458633448 427.6982532186803Q730.7375085029063 428.73317572212727 733.0252319315786 430.4489682936315L733.0252319315786 430.4489682936315L734.7410245030828 440.22626247093325Q736.2934082582533 442.32334228054947 736.1027646391972 443.11315155949586L736.1027646391972 443.11315155949586Q736.1027646391972 444.638300511944 735.3129553602508 445.78216222628015L735.3129553602508 445.78216222628015L735.7214774010852 448.2605292740085Q732.0720138362984 449.02310375023256 730.9281521219623 449.8946174373458Q729.7842904076261 450.76613112445904 728.4225502715117 452.1006364578512L728.4225502715117 452.1006364578512Q726.3254704618955 452.29128007690724 724.4190342713352 452.29128007690724L724.4190342713352 452.29128007690724Q720.5789270874925 452.29128007690724 716.5481762845938 453.4351417912434L716.5481762845938 453.4351417912434Q710.8016329101907 451.3380619816271 703.9112278214517 451.3380619816271L703.9112278214517 451.3380619816271Q701.2422171546673 451.3380619816271 698.4642672769938 451.52870560068317Q695.6863173993204 451.7193492197392 693.0173067325361 452.1006364578512L693.0173067325361 452.1006364578512Q690.1304176439735 452.48192369596325 687.2707633581331 452.78150652590847Q684.3838742695705 453.0538545531313 681.5242199837301 453.0538545531313L681.5242199837301 453.0538545531313Q679.2092617523356 453.4351417912434 678.2560436570554 453.6257854102994Q677.3028255617753 453.81642902935545 676.3496074664952 454.19771626746746L676.3496074664952 454.19771626746746Q669.8404896158681 456.322030879806 662.2692144590718 458.4191106894222Q654.6979393022755 460.5161904990385 647.0449597373123 460.5161904990385L647.0449597373123 460.5161904990385Q635.7425166075624 460.5161904990385 628.8521115188232 454.7696471246355L628.8521115188232 454.7696471246355Q628.0895370425992 453.0538545531313 627.7082498044871 452.48192369596325Q627.3269625663751 451.9099928387952 626.945675328263 451.1474183625711ZM841.8010340044008 441.3701241852694L841.4197467662887 442.13269866149346Q840.2758850519525 445.40087498816814 838.0698660314472 448.7507557230097Q835.8638470109418 452.1006364578512 832.8952535142122 454.6879427164686Q829.9266600174827 457.27524897508613 826.277196452696 458.99104154659034Q822.6549676906316 460.7068341180945 818.6242168877328 460.8974777371505L818.6242168877328 460.8974777371505Q816.1458498400045 460.3255468799825 815.2743361528912 459.6719116146475Q814.4028224657781 458.99104154659034 813.4496043704979 458.4191106894222L813.4496043704979 458.4191106894222Q812.8776735133298 458.0378234513102 812.414681867051 457.73824062136504Q811.9244554180498 457.46589259414213 811.5431681799377 457.27524897508613L811.5431681799377 457.27524897508613L809.2554447512654 456.322030879806L810.0180192274895 453.81642902935545Q810.3993064656015 452.29128007690724 809.8273756084335 451.419766389794Q809.2554447512654 450.57548750540303 807.5124173770389 449.02310375023256L807.5124173770389 449.02310375023256Q806.9404865198708 448.45117289306444 806.3685556627028 447.8792420358964Q805.7966248055347 447.30731117872836 805.4153375674227 446.7353803215603L805.4153375674227 446.7353803215603L802.147161240748 443.11315155949586L807.3217737579829 441.7514114233814Q812.1150990371058 440.41690608998925 813.7491872004431 438.319826280373Q815.3832753637804 436.19551166803444 814.9747533229461 431.2387775725779L814.9747533229461 431.2387775725779Q811.1618809418256 430.4489682936315 808.5745746832082 431.0481339535218Q805.9872684245908 431.62006481068994 803.3182577578064 432.382639286914L803.3182577578064 432.382639286914Q799.8594378120757 433.3358573821941 796.3189134581781 434.0167274502513Q792.7783891042806 434.67036271558624 788.5569946823258 434.67036271558624L788.5569946823258 434.67036271558624Q787.0318457298777 434.67036271558624 785.6973403964854 434.5886583074194Q784.3356002603709 434.47971909653023 782.8104513079228 434.2890754774742L782.8104513079228 434.2890754774742L780.9040151173626 433.90778823936216Q780.5227278792505 431.81070842974594 780.1414406411385 431.5111255998008Q779.7601534030264 431.2387775725779 779.3788661649144 430.8574903344658L779.3788661649144 430.8574903344658Q778.4256480696342 429.8770374364634 777.363490763465 428.27018407584836Q776.3013334572958 426.63609591251105 776.8732643144638 424.13049406206045L776.8732643144638 424.13049406206045Q775.9200462191836 422.41470149055624 775.7294026001277 420.69890891905203L775.7294026001277 420.69890891905203Q774.5855408857915 422.9866323477243 774.0136100286235 425.4922341981749L774.0136100286235 425.4922341981749L773.2510355523993 427.3986703887351L771.3173645591169 427.7799576268472Q770.9360773210049 427.9706012459032 770.7454337019487 428.65147131396037Q770.5547900828927 429.30510657929534 770.5547900828927 429.68639381740735L770.5547900828927 429.68639381740735L769.6015719876127 432.9545701440821Q769.2202847495006 433.3358573821941 768.8389975113886 433.608205409417Q768.4577102732765 433.90778823936216 768.0764230351645 434.2890754774742L768.0764230351645 434.2890754774742Q767.6951357970524 436.00486804897844 767.1232049398843 437.74789542320497Q766.5512740827163 439.4636879947091 765.952108422826 440.9888369471573L765.952108422826 440.9888369471573Q764.9988903275458 443.49443879760787 764.3452550622109 445.86386663444705Q763.6643849941537 448.2605292740085 763.8550286132097 450.57548750540303L763.8550286132097 450.57548750540303L763.0924541369856 452.6725673150193Q762.1392360417054 453.81642902935545 760.9953743273693 454.4972990974126Q759.824277810311 455.1509343627476 758.6804160959748 455.7501000226379L758.6804160959748 455.7501000226379Q758.2991288578628 456.13138726074993 757.6454935925278 456.4037352879729Q756.9646235244705 456.70331811791806 756.5833362863585 456.89396173697406L756.5833362863585 456.89396173697406L756.0114054291905 458.99104154659034L753.6964471977959 459.37232878470235Q751.5993673881796 459.7536160228144 750.7278537010664 459.9442596418705Q749.8835748166755 460.1349032609265 748.7397131023392 460.1349032609265L748.7397131023392 460.1349032609265L746.8060421090568 459.9442596418705Q744.7089622994406 458.2284670703662 743.5651005851043 457.16630976419697Q742.4212388707682 456.13138726074993 740.8688551155979 455.1509343627476L740.8688551155979 455.1509343627476Q739.1530625440936 452.8632109340753 738.9624189250376 451.7193492197392Q738.7717753059816 450.57548750540303 738.5811316869256 449.6222694101229L738.5811316869256 449.6222694101229Q738.1998444488135 448.45117289306444 738.0909052379243 447.6885984168404Q738.0092008297574 446.9260239406163 737.6279135916454 446.5447367025043L737.6279135916454 446.5447367025043L735.1223117411948 444.257013273832L737.2466263535333 442.51398589960553L737.4372699725893 439.2730443756531Q741.2501423537099 429.49575019835135 745.5804759865538 420.508265299996Q749.8835748166755 411.4935455989184 754.4862564767423 402.12477346245095L754.4862564767423 402.12477346245095Q756.0114054291905 399.0472407548323 757.4548499734717 395.9969428499359Q758.8710597150308 392.9194101423173 760.4234434702013 389.8691122374209L760.4234434702013 389.8691122374209Q760.2327998511453 389.2971813802528 760.2327998511453 388.53460690402875Q760.2327998511453 387.74479762508236 760.6140870892573 386.7915795298023L760.6140870892573 386.7915795298023Q762.7111668988736 383.55063800584986 764.0456722322657 380.9633317472324Q765.3801775656578 378.37602548861497 766.7419177017723 375.7070148218306L766.7419177017723 375.7070148218306Q768.2670666542205 372.43883849515595 769.9011548175579 369.36130578753733Q771.5080081781729 366.3110078826409 774.0136100286235 363.04283155596625L774.0136100286235 363.04283155596625L777.0639079335199 361.7083262225741Q777.6358387906879 361.5176826035181 778.4256480696342 361.2453345762952Q779.1882225458584 360.94575174635 780.1414406411385 360.94575174635L780.1414406411385 360.94575174635L783.0010949269788 361.3270389844621Q788.3663510632698 358.84867193673375 792.3971018661686 354.3549294875561Q796.400617866345 349.8339522356561 800.6220122882999 343.5154780040851L800.6220122882999 343.5154780040851L802.52844847886 340.8464673373008L805.0340503293106 342.37161628974894Q805.9872684245908 342.943547146917 807.7030609960949 343.43377359591824Q809.4460883703214 343.89676524219715 811.3525245608816 344.4686960993652L811.3525245608816 344.4686960993652Q814.7841097038901 345.25850537831155 817.8616424115087 346.2117234735917Q820.9119403164051 347.1649415688718 822.8456113096876 349.07137775943204L822.8456113096876 349.07137775943204Q823.9894730240237 352.14891046705065 824.1801166430798 353.67405941949886Q824.3707602621357 355.19920837194707 824.7520475002478 356.7243573243952L824.7520475002478 356.7243573243952Q825.3239783574159 359.9925336510699 825.8142048064171 363.2334751750223Q826.277196452696 366.501651501697 826.467840071752 370.53240230459573L826.467840071752 370.53240230459573Q827.4482929697544 373.7733438285481 828.1019282350894 376.93258094433367Q828.7827983031466 380.0918180601192 829.3547291603147 383.35999438679386L829.3547291603147 383.35999438679386Q830.3079472555949 387.9626760468607 831.2611653508749 392.26577487698233Q832.214383446155 396.568873707104 833.7667672013255 400.40898089094674L833.7667672013255 400.40898089094674Q835.2919161537736 400.40898089094674 835.6732033918857 400.5996245100028L835.6732033918857 400.5996245100028Q836.6264214871658 400.21833727189073 837.6885787933351 400.0004588501124Q838.723501296782 399.8098152310564 840.0852414328965 399.61917161200034L840.0852414328965 399.61917161200034L842.1823212425128 399.42852799294434L842.9448957187368 401.3621989862269Q843.1355393377929 402.31541708150695 844.8513319092971 403.2686351767871L844.8513319092971 403.2686351767871Q847.3569337597477 403.4592787958431 848.5007954740838 404.3307924829564Q849.64465718842 405.1750713673473 850.5978752837 406.12828946262744L850.5978752837 406.12828946262744Q851.3604497599242 406.9180987415738 852.1502590388704 407.29938597968584L852.1502590388704 407.29938597968584L855.0099133247109 408.443247694022L853.4847643722627 411.3029019798623Q851.5510933789802 414.761721925593 848.0105690250826 417.9209590413786Q844.4700446711851 421.08019615716404 840.0852414328965 423.1772759667803L840.0852414328965 423.1772759667803Q840.2758850519525 424.32113768111645 840.3575894601195 425.38329498728575Q840.4665286710085 426.445452293455 840.8478159091205 427.58931400779113L840.8478159091205 427.58931400779113Q841.4197467662887 430.8574903344658 841.8010340044008 434.2890754774742Q842.1823212425128 437.74789542320497 841.8010340044008 441.3701241852694L841.8010340044008 441.3701241852694ZM786.0786276345975 409.01517855119005L786.0786276345975 409.01517855119005Q791.8251710090004 408.633891313078 796.5095570772341 408.1436648640768Q801.1939431454679 407.6806732177979 806.9404865198708 406.53681150346176L806.9404865198708 406.53681150346176Q805.6059811864786 400.7902681290588 804.0808322340305 394.5534983056546Q802.52844847886 388.34396328497274 800.8126559073557 382.2161326724577L800.8126559073557 382.2161326724577L799.6687941930197 384.12256886301793Q795.828687009177 388.15331966591674 792.2881626552794 393.1100537613733Q788.7476383013818 398.0940226595522 786.2692712536535 402.506060700563L786.2692712536535 402.506060700563Q785.1254095393174 404.2218532720672 783.9543130222589 405.9376458435714Q782.8104513079228 407.6806732177979 781.8572332126427 409.3964657893021L781.8572332126427 409.3964657893021Q783.0010949269788 409.2058221702461 784.0632522331481 409.2058221702461Q785.1254095393174 409.2058221702461 786.0786276345975 409.01517855119005ZM961.0894699280263 349.26202137848804L961.0894699280263 349.26202137848804Q961.4707571661385 353.48341580044286 962.4512100641409 356.5337137053392Q963.404428159421 359.6112464129579 964.5482898737571 362.47090069879823L964.5482898737571 362.47090069879823Q965.5015079690372 365.1671461683048 966.3730216561505 367.7544524269223Q967.2173005405414 370.34175868553973 967.5985877786535 373.96398744760415L967.5985877786535 373.96398744760415Q966.0734388262053 378.94795634578304 965.4198035608704 383.16935076773785Q964.7389334928131 387.3635103869703 963.9763590165891 391.96619204703717L963.9763590165891 391.96619204703717Q960.8988263089705 398.66595351672026 958.03917202313 403.84056603395516Q955.1522829345674 409.01517855119005 953.4364903630633 412.85528573503285L953.4364903630633 412.85528573503285Q952.4832722677831 413.80850383031293 951.802402199726 415.0340699528159Q951.148766934391 416.2868708780412 950.3861924581669 417.6213762114334L950.3861924581669 417.6213762114334Q950.0049052200548 418.1933070686014 949.4057395601644 419.3644035856599Q948.8338087029964 420.508265299996 948.4525214648843 420.88955253810803L948.4525214648843 420.88955253810803L944.6396490837639 419.5550472047159L943.8770746075397 424.32113768111645L941.1808291380332 425.11094696006285L939.274392947473 427.3986703887351Q935.6249293826862 433.71714462030616 931.6214133825097 438.0202434504278Q927.590662579611 442.32334228054947 922.5249892732652 445.673223015391Q917.4320811641971 449.02310375023256 911.0319025244593 451.9099928387952Q904.6044890819991 454.7696471246355 896.5702222789239 458.2284670703662L896.5702222789239 458.2284670703662Q893.3020459522492 457.8471798322542 890.9053833126877 457.73824062136504Q888.5087206731264 457.6565362131982 886.41164086351 457.46589259414213L886.41164086351 457.46589259414213Q882.7894121014456 457.46589259414213 877.4241559651547 456.89396173697406L877.4241559651547 456.89396173697406Q876.8522251079867 455.3688127845259 875.6811285909282 454.7696471246355Q874.5372668765921 454.19771626746746 873.5840487813119 454.19771626746746L873.5840487813119 454.19771626746746Q870.3431072573595 452.6725673150193 868.7090190940222 449.70397381828974Q867.0749309306849 446.7353803215603 865.5497819782368 443.30379517855187L865.5497819782368 443.30379517855187Q864.5965638829566 441.17948056621333 863.6161109849542 439.35474878381996Q862.6628928896741 437.55725180414885 861.5190311753379 435.6235808108664L861.5190311753379 435.6235808108664L864.7872075020126 434.67036271558624L860.5658130800579 430.0676810555194Q860.1845258419457 429.49575019835135 859.6125949847777 429.03275855207244Q859.0406641276097 428.54253210307127 858.6593768894976 427.9706012459032L858.6593768894976 427.9706012459032L858.4687332704416 424.9203033410068Q857.8695676105513 411.6841892179744 857.9785068214404 400.68132891816964Q858.0874460323296 389.6784686183649 860.9471003181699 381.04503615539926L860.9471003181699 381.04503615539926L860.9471003181699 378.94795634578304Q861.5190311753379 374.7265619238282 862.090962032506 371.9486120461548Q862.6628928896741 369.1706621684813 863.0441801277861 366.692295120753L863.0441801277861 366.692295120753Q863.6161109849542 362.47090069879823 864.7872075020126 358.84867193673375L864.7872075020126 358.84867193673375Q867.4562181687969 358.2767410795657 868.790723502189 356.64265291622837Q870.1252288355812 355.008564752891 871.1056817335837 353.67405941949886L871.1056817335837 353.67405941949886Q873.7746924003679 353.48341580044286 874.7279104956481 354.43663389572293Q875.6811285909282 355.38985199100307 876.6615814889306 357.5141666033416L876.6615814889306 357.5141666033416Q877.6147995842107 359.2299591748458 879.0310093257697 361.3270389844621Q880.4744538700511 363.45135359680063 883.3613429586137 364.5952153111367L883.3613429586137 364.5952153111367Q883.7426301967257 366.1203642635849 884.3962654620607 367.7544524269223Q885.0771355301179 369.36130578753733 885.839710006342 371.2949767808198L885.839710006342 371.2949767808198Q887.3648589587901 374.5359183047722 888.6176598840154 378.0764426586698Q889.8704608092407 381.6169670125674 890.0611044282969 384.885143339242L890.0611044282969 384.885143339242Q888.1274334350143 388.53460690402875 887.0925109315673 393.3006973804293Q886.030353625398 398.0940226595522 885.7580055981751 402.9690523468419Q885.45842276823 407.87131683685396 885.9486492172312 412.36505928603157Q886.41164086351 416.8588017352093 887.5555025778463 419.93633444282796L887.5555025778463 419.93633444282796L888.7265990949046 422.41470149055624L891.967540618857 422.0334142524442Q897.7140839932599 420.508265299996 902.3984700614938 418.68353351760265Q907.1100909324497 416.8588017352093 911.1136069326262 414.380434687481Q915.1443577355249 411.8748328370304 918.7665864975893 408.5249521021889Q922.4160500623761 405.1750713673473 926.4468008652749 400.7902681290588L926.4468008652749 400.7902681290588Q930.4503168654513 396.378230088048 933.4189103621809 390.71339112181187Q936.3875038589103 385.07578695829807 938.4028792603597 378.94795634578304Q940.4182546618091 372.820125733268 941.4804119679784 366.80123433164215Q942.5153344714254 360.755108127294 942.8966217095374 355.38985199100307L942.8966217095374 355.38985199100307Q946.164798036212 354.24599027666693 946.164798036212 350.78717033093625L946.164798036212 350.78717033093625L945.7835107981 348.69009052132Q945.020936321876 347.54622880698383 945.7835107981 346.0210798545357L945.7835107981 346.0210798545357Q946.9273725124361 342.37161628974894 951.148766934391 340.46518009918873L951.148766934391 340.46518009918873Q954.1990648392873 342.37161628974894 956.5957274788487 344.6593397184212Q958.9923901184102 346.97429794981576 961.0894699280263 349.26202137848804ZM993.662293983884 438.319826280373L993.662293983884 438.319826280373Q991.5379793715455 445.97280584533615 989.9311260109305 449.8946174373458Q988.2970378475931 453.81642902935545 985.0288615209184 458.0378234513102L985.0288615209184 458.0378234513102Q982.5504944731902 457.6565362131982 981.59727637791 458.6097543084783Q980.6440582826299 459.56297240375835 979.4729617655714 460.3255468799825L979.4729617655714 460.3255468799825Q977.7571691940673 460.7068341180945 976.9945947178433 460.3255468799825Q976.232020241619 459.9442596418705 975.6600893844511 459.4812679955915Q975.088158527283 458.99104154659034 974.2166448401697 458.5280499003114Q973.3451311530564 458.0378234513102 971.6293385815522 458.0378234513102L971.6293385815522 458.0378234513102Q971.2480513434402 456.51267449886205 970.757824894439 455.1509343627476Q970.2948332481601 453.81642902935545 968.1705186358216 454.19771626746746L968.1705186358216 454.19771626746746Q968.5790406766558 452.6725673150193 968.3883970575998 451.61041000885Q968.1705186358216 450.57548750540303 967.8981706085987 449.70397381828974Q967.5985877786535 448.83246013117656 967.4079441595975 447.9881812467856Q967.2173005405414 447.1166675596723 967.5985877786535 445.78216222628015L967.5985877786535 445.78216222628015Q966.6453696833734 445.78216222628015 966.0734388262053 444.447656892888Q965.5015079690372 443.11315155949586 964.7389334928131 441.7514114233814L964.7389334928131 441.7514114233814Q965.3108643499812 438.319826280373 965.8827952071493 435.24229357275436Q966.4547260643174 432.19199566785795 967.3262397514306 429.49575019835135Q968.1705186358216 426.82673953156706 968.769684295712 424.13049406206045Q969.34161515288 421.4614833952761 968.1705186358216 418.60182910943576L968.1705186358216 418.60182910943576Q968.960327914768 419.1737599666038 969.34161515288 418.3022462794906Q969.722902390992 417.43073259237735 969.9135460100481 416.0145228508183Q970.104189629104 414.571078306537 970.104189629104 413.1276337622557Q970.104189629104 411.6841892179744 969.9135460100481 410.73097112269426L969.9135460100481 410.73097112269426Q971.8199822006083 405.74700222451537 973.0727831258336 400.49068529911364Q974.2983492483365 395.23436837371185 975.3605065545058 390.05975585647695Q976.4226638606751 384.885143339242 977.5665255750113 379.9011744410631Q978.7103872893474 374.9172055428843 980.6440582826299 370.72304592365174L980.6440582826299 370.72304592365174Q982.7411380922462 370.34175868553973 985.3284443508635 371.18603756993065Q987.915750609481 372.05755125704394 988.4876814666491 373.3920565904361L988.4876814666491 373.3920565904361Q993.4716503648281 369.57918420931566 997.2845227459485 364.10498886213554Q1001.1246299297912 358.65802831767775 1005.15538073269 353.48341580044286Q1009.1588967328664 348.30880328320796 1014.0339264201561 344.27805248030916Q1018.9361909101682 340.27453648013267 1026.3985268560755 339.5119620039086L1026.3985268560755 339.5119620039086Q1030.238634039918 342.37161628974894 1034.9230201081518 345.3402097864784Q1039.6074061763857 348.30880328320796 1042.6849388840042 353.1021285623308L1042.6849388840042 353.1021285623308Q1044.2100878364524 353.86470303855486 1045.2722451426216 354.73621672566816Q1046.3071676460686 355.58049561005913 1047.8323165985169 356.5337137053392L1047.8323165985169 356.5337137053392L1047.8323165985169 358.84867193673375Q1050.1472748299113 360.94575174635 1051.5907193741928 363.7237016240235Q1053.0069291157517 366.501651501697 1054.1780256328102 369.6608886174825Q1055.3218873471462 372.820125733268 1056.4657490614823 375.97936284905353Q1057.6096107758185 379.13859996483905 1059.1347597282668 382.0254890534017L1059.1347597282668 382.0254890534017Q1058.7534724901548 382.9787071486818 1058.7534724901548 383.6323424140167Q1058.7534724901548 384.313212482074 1059.0530553201 385.07578695829807Q1059.3254033473227 385.83836143452214 1059.5160469663788 386.6009359107462Q1059.706690585435 387.3635103869703 1059.5160469663788 388.72525052308475L1059.5160469663788 388.72525052308475Q1058.9441161092107 397.14080456427206 1054.069086421921 402.31541708150695Q1049.1940567346312 407.4900295987419 1042.3036516458922 410.8399103335834Q1035.3860117544307 414.189791068425 1027.5423885704115 416.4775144970972Q1019.6987653863923 418.79247272849176 1013.3802911548213 421.4614833952761L1013.3802911548213 421.4614833952761Q1013.3802911548213 422.2240578715002 1014.0339264201561 422.2240578715002Q1014.7147964882133 422.2240578715002 1014.5241528691573 423.1772759667803L1014.5241528691573 423.1772759667803Q1019.1268345292242 426.0641650553429 1021.7958451960085 427.7799576268472Q1024.4920906655152 429.49575019835135 1026.8887533050765 430.6396119126875Q1029.2581811419157 431.81070842974594 1032.0361310195892 432.6549873141369Q1034.8140808972628 433.5265010012501 1039.7980497954416 434.67036271558624L1039.7980497954416 434.67036271558624Q1044.7820186936206 435.8142244299224 1047.559968571294 436.4950944979796Q1050.3379184489675 437.17596456603684 1052.6256418776397 437.63895621231575Q1054.9406001090342 438.129182661317 1057.3372627485955 438.4015306885399Q1059.706690585435 438.70111351848504 1064.1187286264455 439.0824007565971L1064.1187286264455 439.0824007565971Q1065.83452119795 440.79819332810126 1067.087322123175 443.1948559676627Q1068.3401230484005 445.59151860722415 1068.7214102865123 447.9881812467856Q1069.1026975246245 450.384843886347 1068.9120539055684 452.5908629068524Q1068.7214102865123 454.7696471246355 1067.5775485721763 456.13138726074993L1067.5775485721763 456.13138726074993Q1067.7681921912324 456.70331811791806 1068.4218274565674 456.5943789070289Q1069.1026975246245 456.51267449886205 1069.8652720008486 456.70331811791806L1069.8652720008486 456.70331811791806Q1068.7214102865123 457.46589259414213 1067.9588358102883 458.6097543084783Q1067.1962613340643 459.7536160228144 1066.4336868578403 460.8974777371505Q1065.6438775788938 462.06857425420895 1064.6906594836137 462.9128531385999Q1063.7374413883335 463.7843668257132 1062.0216488168294 463.9750104447692L1062.0216488168294 463.9750104447692Q1056.0844618233705 466.2627338734415 1047.0697421222926 464.2473584719921Q1038.0822572239374 462.25921787326496 1024.301447046459 456.89396173697406L1024.301447046459 456.89396173697406Q1017.41104195772 454.19771626746746 1013.080708324876 452.20957566874034Q1008.7776094947544 450.194200267291 1005.6183723789688 448.1788248658416Q1002.4591352631833 446.1634494643922 999.8718290045659 443.87572603572Q997.2845227459485 441.5607678043254 993.662293983884 438.319826280373ZM1021.0332707197845 372.629482114212L1021.0332707197845 372.629482114212Q1018.9361909101682 375.7070148218306 1016.3488846515509 378.18538186955897Q1013.7615783929333 380.66374891728725 1011.3649157533719 383.2510551759047Q1008.9682531138104 385.83836143452214 1007.0618169232503 388.99759855030766Q1005.15538073269 392.1568356660932 1004.3655714537435 396.378230088048L1004.3655714537435 396.378230088048Q1011.0653329234267 395.6156556118239 1018.3642600530002 392.6470621150944Q1025.6359523798512 389.6784686183649 1032.1450702304783 386.9822231488583L1032.1450702304783 386.9822231488583Q1031.3824957542543 381.04503615539926 1028.0326150194128 377.42280739333484Q1024.6827342845713 373.7733438285481 1021.0332707197845 372.629482114212ZM1175.7541849851082 350.4058830928242L1175.7541849851082 350.4058830928242Q1175.9448286041643 351.76762322893865 1175.8631241959972 352.42125849427356Q1175.7541849851082 353.1021285623308 1175.6724805769413 353.67405941949886Q1175.563541366052 354.24599027666693 1175.563541366052 354.92686034472416Q1175.563541366052 355.58049561005913 1175.9448286041643 356.9150009434513L1175.9448286041643 356.9150009434513Q1171.9413126039876 363.45135359680063 1166.6577608758635 365.82078143363975Q1161.4014439504617 368.2174440732012 1155.2736133379467 369.27960137937043Q1149.1457827254317 370.34175868553973 1142.7183692829717 371.48562039987587Q1136.3181906432337 372.629482114212 1129.9997164116626 376.46958929805476L1129.9997164116626 376.46958929805476Q1127.494114561212 375.48913640005236 1125.5059739624849 376.46958929805476Q1123.4905985610355 377.42280739333484 1119.6504913771928 377.0415201552228L1119.6504913771928 377.0415201552228Q1118.5066296628565 378.18538186955897 1116.7908370913524 378.67560831856014Q1115.047809717126 379.13859996483905 1113.3320171456216 379.7105308220071L1113.3320171456216 379.7105308220071Q1114.094591621846 381.4263233935113 1114.012887213679 383.2510551759047Q1113.9039480027898 385.07578695829807 1114.475878859958 386.2196486726342L1114.475878859958 386.2196486726342Q1121.1756403296408 386.7915795298023 1129.3188463436054 386.02900505357815Q1137.4620523575697 385.2664305773541 1145.3056755415892 385.07578695829807L1145.3056755415892 385.07578695829807Q1145.496319160645 386.02900505357815 1145.115031922533 386.3285878835233Q1144.7337446844208 386.6009359107462 1144.924388303477 387.3635103869703L1144.924388303477 387.3635103869703Q1146.2861284395913 388.34396328497274 1147.6206337729836 389.76017302653173Q1148.9551391063758 391.20361757081304 1150.289644439768 392.53812290420524Q1151.62414977316 393.8726282375974 1153.0675943174415 394.7441419247106Q1154.5110388617227 395.6156556118239 1156.417475052283 395.42501199276785L1156.417475052283 395.42501199276785Q1157.180049528507 396.95016094521606 1157.4796323584521 398.77489272760937Q1157.7519803856749 400.5996245100028 1156.989405909451 402.506060700563L1156.989405909451 402.506060700563Q1153.9391080045546 404.60314051017923 1150.8615752969358 406.80915953068467Q1147.8112773920398 409.01517855119005 1144.461396657198 410.73097112269426Q1141.1115159223566 412.47399849692073 1137.3803479494031 413.5089210003677Q1133.621945173727 414.571078306537 1129.0464983163824 414.380434687481L1129.0464983163824 414.380434687481Q1128.0932802211025 414.380434687481 1127.6030537721012 414.380434687481Q1127.1128273231 414.380434687481 1126.350252846876 413.80850383031293L1126.350252846876 413.80850383031293Q1124.8251038944277 414.761721925593 1122.0471540167543 414.380434687481Q1119.2692041390808 413.999147449369 1117.7440551866325 414.95236554464907L1117.7440551866325 414.95236554464907Q1115.6469753770164 413.999147449369 1112.678381880287 414.08085185753583Q1109.7097883835575 414.189791068425 1107.3948301521627 413.42721659220086L1107.3948301521627 413.42721659220086Q1104.3445322472664 417.43073259237735 1101.8389303968158 422.0334142524442Q1099.3605633490874 426.63609591251105 1097.4541271585272 431.81070842974594L1097.4541271585272 431.81070842974594Q1103.9632450091544 432.763926525026 1108.266343839276 432.57328290597Q1112.5694426693976 432.382639286914 1116.4095498532404 431.8924128379128Q1120.222422234361 431.4294211916339 1124.2531730372598 430.9391947426327Q1128.2839238401584 430.4489682936315 1134.4117544526734 430.6396119126875L1134.4117544526734 430.6396119126875Q1138.224626833794 428.54253210307127 1143.508178561918 427.8888968377363Q1148.76449548732 427.20802676967907 1153.1765335283305 425.6828778172309L1153.1765335283305 425.6828778172309Q1154.7016824807788 426.254808674399 1155.8455441951148 427.6982532186803Q1156.989405909451 429.11446296023934 1158.0515632156203 430.3672638854646Q1159.1137205217897 431.62006481068994 1160.2575822361257 432.57328290597Q1161.4014439504617 433.5265010012501 1163.1172365219659 433.3358573821941L1163.1172365219659 433.3358573821941Q1163.8798109981901 434.0984318584182 1164.1793938281353 435.16058916458746Q1164.4789766580805 436.19551166803444 1164.6696202771363 437.17596456603684Q1164.8602638961925 438.129182661317 1165.3232555424715 438.7828179266519Q1165.8134819914726 439.4636879947091 1166.9573437058089 439.2730443756531L1166.9573437058089 439.2730443756531Q1164.070454617246 445.59151860722415 1160.3392866442925 448.9413993420657Q1156.608118671339 452.29128007690724 1151.814793392216 454.00707264841145Q1147.0487029158155 455.7501000226379 1141.1932203305234 456.70331811791806Q1135.3649725479536 457.6565362131982 1128.2839238401584 458.99104154659034L1128.2839238401584 458.99104154659034Q1126.5408964659318 459.37232878470235 1125.3970347515958 458.90933713842344Q1124.2531730372598 458.4191106894222 1122.7280240848115 458.4191106894222L1122.7280240848115 458.4191106894222Q1118.3159860438006 459.37232878470235 1112.1881554312856 460.1349032609265Q1106.0603248187706 460.8974777371505 1099.7418505871997 460.7068341180945Q1093.4233763556285 460.5161904990385 1087.6768329812255 459.0999807574795Q1081.9302896068225 457.6565362131982 1078.2808260420359 454.00707264841145L1078.2808260420359 454.00707264841145Q1076.7556770895876 452.6725673150193 1076.2926854433088 450.8478355326259Q1075.8024589943075 449.02310375023256 1073.7053791846913 448.06988565495243L1073.7053791846913 448.06988565495243Q1073.5147355656352 445.59151860722415 1072.9428047084673 442.51398589960553Q1072.343639048577 439.4636879947091 1071.7717081914088 436.1138072598676Q1071.1997773342407 432.763926525026 1070.927429307018 429.49575019835135Q1070.6278464770726 426.254808674399 1071.1997773342407 423.5585632048923L1071.1997773342407 423.5585632048923Q1071.7717081914088 420.69890891905203 1073.5964399738023 418.38395068765743Q1075.4211717561957 416.0962272589852 1074.8492408990273 413.42721659220086L1074.8492408990273 413.42721659220086Q1075.8024589943075 413.23657297314486 1075.9931026133636 412.36505928603157Q1076.1837462324197 411.4935455989184 1077.5182515658116 411.6841892179744L1077.5182515658116 411.6841892179744Q1078.6893480828703 408.252604074966 1080.0238534162625 405.1750713673473Q1081.3583587496546 402.12477346245095 1082.8018032939358 399.23788437388833Q1084.2180130354948 396.378230088048 1085.6614575797762 393.4096365913185Q1087.1049021240574 390.44104309458896 1088.4394074574498 386.7915795298023L1088.4394074574498 386.7915795298023Q1085.7703967906655 384.313212482074 1084.5175958654402 381.3446189853445Q1083.2647949402149 378.37602548861497 1082.6928640830467 375.40743199188546Q1082.1209332258786 372.43883849515595 1081.7396459877666 369.27960137937043Q1081.3583587496546 366.1203642635849 1080.4051406543745 362.85218793691024L1080.4051406543745 362.85218793691024Q1082.3115768449347 359.9925336510699 1085.089526722608 358.1678018686765Q1087.8674766002816 356.3430700862832 1091.1356529269563 355.19920837194707Q1094.3765944509087 354.0553466576109 1098.2167016347514 353.29277218138685Q1102.0295740158717 352.5301977051627 1106.2509684378267 351.57697960988264L1106.2509684378267 351.57697960988264Q1113.9039480027898 349.07137775943204 1119.950074207138 347.7368724260399Q1125.968965608764 346.4023670926477 1131.824448194056 345.53085340553446Q1137.6526959766259 344.6593397184212 1143.9711702081968 343.89676524219715Q1150.289644439768 343.1341907659731 1158.3511460455654 341.60904181352487L1158.3511460455654 341.60904181352487Q1160.0669386170698 343.3248343850291 1161.5920875695178 343.3248343850291L1161.5920875695178 343.3248343850291Q1162.3546620457419 341.60904181352487 1163.4168193519113 342.2899118815821Q1164.4789766580805 342.943547146917 1164.2610982363021 341.2277545754128L1164.2610982363021 341.2277545754128Q1166.1947692295846 344.4686960993652 1169.163362726314 346.6747151198706Q1172.1319562230437 348.88073414037603 1175.7541849851082 350.4058830928242ZM1210.424088850582 423.3679195858363L1210.424088850582 423.3679195858363Q1208.7082962790778 423.74920682394844 1207.9457218028538 425.38329498728575Q1207.1559125239073 427.01738315062306 1206.5022772585723 428.73317572212727Q1205.8214071905152 430.4489682936315 1205.1677719251802 431.8924128379128Q1204.486901857123 433.3358573821941 1203.1523965237309 433.3358573821941L1203.1523965237309 433.3358573821941Q1202.9617529046748 434.8610063346423 1202.0902392175615 436.00486804897844Q1201.2459603331706 437.17596456603684 1200.4561510542242 438.4015306885399Q1199.693576578 439.6543316137651 1199.3122893398881 441.0977761580465Q1198.931002101776 442.51398589960553 1199.693576578 444.447656892888L1199.693576578 444.447656892888Q1198.1684276255519 445.59151860722415 1197.7871403874399 447.6885984168404Q1197.4058531493279 449.8129130291789 1196.9156267003266 451.7193492197392Q1196.4526350540477 453.6257854102994 1195.3087733397115 454.9602907436916Q1194.1376768226532 456.322030879806 1191.0873789177567 456.13138726074993L1191.0873789177567 456.13138726074993Q1190.5154480605888 456.89396173697406 1190.8967352987008 457.08460535603007Q1191.2780225368128 457.27524897508613 1191.468666155869 458.4191106894222L1191.468666155869 458.4191106894222Q1189.3715863462526 458.0378234513102 1188.3094290400832 458.71869351936743Q1187.247271733914 459.37232878470235 1185.722122781466 459.56297240375835L1185.722122781466 459.56297240375835Q1182.072659216679 458.4191106894222 1179.6759965771178 455.5594564035819Q1177.3065687402786 452.6725673150193 1175.4818369578852 449.1320429611217Q1173.6571051754918 445.59151860722415 1172.2136606312106 441.9420550424374Q1170.7974508896514 438.319826280373 1169.435710753537 435.6235808108664L1169.435710753537 435.6235808108664Q1170.0076416107052 433.5265010012501 1169.6263543725931 431.5111255998008Q1169.245067134481 429.49575019835135 1168.2918490392008 428.1612448649592L1168.2918490392008 428.1612448649592Q1177.6878559783906 408.252604074966 1188.7724206863622 385.64771781546614Q1199.884220197056 363.04283155596625 1209.852157993414 341.0371109563568L1209.852157993414 341.0371109563568Q1214.2641960344247 342.752903527861 1218.5672948645465 344.9589225483664Q1222.870393694668 347.1649415688718 1226.4109180485657 350.0245958547122Q1229.951442402463 352.9114849432748 1232.4570442529139 356.64265291622837Q1234.935411300642 360.37382088918196 1235.697985776866 364.9765025492488L1235.697985776866 364.9765025492488Q1235.316698538754 366.1203642635849 1234.8264720897528 365.82078143363975Q1234.3634804434741 365.54843340641685 1233.982193205362 366.1203642635849L1233.982193205362 366.1203642635849Q1234.744767681586 367.07358235886505 1234.8264720897528 367.4548695969771Q1234.935411300642 367.8361568350891 1234.8264720897528 368.2174440732012Q1234.744767681586 368.5987313113132 1234.744767681586 369.27960137937043Q1234.744767681586 369.96047144742766 1235.316698538754 371.1043331617638L1235.316698538754 371.1043331617638Q1234.55412406253 370.9136895427078 1234.2545412325849 371.2949767808198Q1233.982193205362 371.6762640189319 1233.0289751100818 371.2949767808198L1233.0289751100818 371.2949767808198Q1233.7915495863058 373.3920565904361 1233.4919667563606 374.7265619238282Q1233.219618729138 376.0883020599427 1232.6476878719698 377.12322456338967Q1232.0757570148016 378.18538186955897 1231.6672349739674 379.43818279478427Q1231.2859477358552 380.66374891728725 1231.8851133957455 382.5974199105697L1231.8851133957455 382.5974199105697Q1231.2859477358552 382.5974199105697 1231.0135997086325 382.86976793779263Q1230.7140168786873 383.16935076773785 1230.5233732596312 383.4416987949607Q1230.3327296405753 383.74128162490587 1230.0603816133525 384.01362965212877Q1229.7607987834072 384.313212482074 1229.188867926239 384.12256886301793L1229.188867926239 384.12256886301793Q1229.7607987834072 388.34396328497274 1229.570155164351 392.53812290420524Q1229.3795115452951 396.75951732616005 1229.2978071371283 401.06261615628165Q1229.188867926239 405.36571498640336 1229.3795115452951 410.07733585735934Q1229.570155164351 414.761721925593 1230.7140168786873 419.7456908237719L1230.7140168786873 419.7456908237719Q1237.6044219674263 415.71494002087314 1241.7441119812142 409.3964657893021Q1245.8565671922797 403.0779915577311 1248.4438734508974 395.23436837371185Q1251.0311797095148 387.3635103869703 1252.365685042907 378.37602548861497Q1253.7001903762991 369.36130578753733 1255.2253393287474 359.9925336510699L1255.2253393287474 359.9925336510699Q1256.968366702974 358.2767410795657 1257.9215847982541 355.77113922911514Q1258.874802893534 353.29277218138685 1259.6373773697583 350.51482230371334Q1260.3999518459823 347.7368724260399 1261.1625263222063 344.9589225483664Q1261.9251007984303 342.18097267069294 1263.096197315489 339.89324924202066L1263.096197315489 339.89324924202066Q1265.955851601329 340.27453648013267 1267.9712270027785 341.6907462216917Q1269.986602404228 343.1341907659731 1271.7023949757322 344.7682789293104Q1273.4181875472364 346.4023670926477 1275.3518585405188 347.81857683420674Q1277.258294731079 349.26202137848804 1280.1179490169195 349.6433086166001L1280.1179490169195 349.6433086166001Q1282.432907248314 352.9114849432748 1284.339343438874 355.96178284817114Q1286.2457796294345 359.03931555578976 1286.8177104866027 362.47090069879823L1286.8177104866027 362.47090069879823Q1285.8644923913225 364.02328445396864 1285.4015007450434 365.9297206445289Q1284.9112742960424 367.8361568350891 1284.339343438874 369.76982782837166Q1283.7674125817061 371.6762640189319 1282.814194486426 373.31035218226924Q1281.8609763911459 374.9172055428843 1280.1179490169195 376.0883020599427L1280.1179490169195 376.0883020599427Q1279.5460181597514 381.04503615539926 1278.7017392753605 385.1847261691872Q1277.8302255882472 389.2971813802528 1276.958711901134 393.3006973804293Q1276.114433016743 397.33144818332806 1275.542502159575 401.6345470134498Q1274.9705713024068 405.9376458435714 1275.161214921463 411.1122583608063L1275.161214921463 411.1122583608063Q1273.6088311662925 415.52429640181714 1271.893038594788 420.508265299996Q1270.177246023284 425.4922341981749 1269.2240279280038 429.49575019835135L1269.2240279280038 429.49575019835135Q1266.146495220385 432.00135204880195 1264.430702648881 435.43293719181037Q1262.7149100773768 438.89175713754105 1260.7812390840943 442.32334228054947L1260.7812390840943 442.32334228054947Q1260.01866460787 443.11315155949586 1259.8280209888142 442.70462951866153Q1259.6373773697583 442.32334228054947 1258.493515655422 442.13269866149346L1258.493515655422 442.13269866149346Q1258.6841592744781 442.89527313771754 1258.493515655422 443.30379517855187Q1258.302872036366 443.6850824166639 1258.003289206421 443.95743044388684Q1257.730941179198 444.257013273832 1257.6220019683087 444.828944131Q1257.5402975601419 445.40087498816814 1257.9215847982541 446.3540930834483L1257.9215847982541 446.3540930834483Q1255.2253393287474 447.4979547977844 1253.128259519131 449.6222694101229Q1251.0311797095148 451.7193492197392 1248.6345170699533 453.4351417912434Q1246.237854430392 455.1509343627476 1242.8879736955505 455.7501000226379Q1239.538092960709 456.322030879806 1234.172836824418 454.38835988652346L1234.172836824418 454.38835988652346Q1226.3292136403988 448.6418165121205 1220.2830874360507 441.17948056621333Q1214.2641960344247 433.71714462030616 1210.424088850582 423.3679195858363ZM1390.800187280302 366.1203642635849L1390.800187280302 366.1203642635849Q1386.0340968039013 366.1203642635849 1380.4781970485542 366.80123433164215Q1374.9222972932073 367.4548695969771 1369.5570411569165 368.2174440732012L1369.5570411569165 368.2174440732012Q1365.7169339730735 368.78937493036926 1362.1764096191762 369.1706621684813Q1358.6358852652786 369.57918420931566 1355.7762309794382 369.76982782837166L1355.7762309794382 369.76982782837166Q1354.441725646046 373.96398744760415 1353.0799855099317 377.23216377427883Q1351.7454801765393 380.47310529823125 1350.2203312240913 383.55063800584986L1350.2203312240913 383.55063800584986Q1348.695182271643 386.7915795298023 1347.4423813464177 390.1414602646438Q1346.1895804211927 393.4913409994853 1345.0457187068564 397.33144818332806L1345.0457187068564 397.33144818332806Q1343.1392825162961 400.40898089094674 1341.8864815910706 402.9690523468419Q1340.6336806658455 405.55635860545937 1339.8711061896215 408.82453493213404L1339.8711061896215 408.82453493213404Q1337.583382760949 411.6841892179744 1336.439521046613 414.8434263337599Q1335.2684245295545 418.0026634495454 1334.6964936723866 420.31762168093996L1334.6964936723866 420.31762168093996L1333.9339191961626 422.60534510961224Q1332.7900574818264 423.74920682394844 1332.5994138627702 424.4300768920056Q1332.4087702437143 425.11094696006285 1331.64619576749 425.6828778172309L1331.64619576749 425.6828778172309Q1331.4555521484342 427.7799576268472 1330.311690434098 429.8770374364634L1330.311690434098 429.8770374364634Q1329.930403195986 430.8574903344658 1329.7125247742076 431.7017692188568Q1329.5218811551517 432.57328290597 1329.5218811551517 432.9545701440821L1329.5218811551517 432.9545701440821Q1329.5218811551517 434.8610063346423 1328.5686630598716 435.43293719181037L1328.5686630598716 435.43293719181037Q1328.7593066789277 436.3861552870905 1328.5686630598716 437.44831259325974Q1328.3780194408155 438.510469899429 1328.1873758217596 439.4636879947091L1328.1873758217596 439.4636879947091Q1327.6154449645915 441.7514114233814 1327.8060885836476 443.11315155949586L1327.8060885836476 443.11315155949586Q1328.3780194408155 443.87572603572 1328.8682458898168 444.447656892888Q1329.3312375360956 445.0195877500561 1329.5218811551517 445.97280584533615L1329.5218811551517 445.97280584533615Q1330.6929776722102 446.7353803215603 1331.2649085293783 446.9260239406163L1331.2649085293783 446.9260239406163Q1332.0274830056023 447.4979547977844 1333.5526319580504 448.2605292740085L1333.5526319580504 448.2605292740085L1335.2684245295545 450.194200267291Q1336.248877427557 455.7501000226379 1333.5526319580504 458.99104154659034L1333.5526319580504 458.99104154659034Q1330.6929776722102 462.6405051113771 1323.802572583471 462.6405051113771L1323.802572583471 462.6405051113771L1321.4876143520764 462.6405051113771Q1320.5343962567963 461.68728701609695 1320.3437526377402 461.08812135620656L1320.3437526377402 461.08812135620656Q1318.8186036852921 460.5161904990385 1317.865385590012 460.1349032609265Q1316.8849326920094 459.7536160228144 1316.1223582157854 458.6097543084783L1316.1223582157854 458.6097543084783Q1313.6439911680573 457.46589259414213 1312.118842215609 456.70331811791806L1312.118842215609 456.70331811791806L1310.3758148413826 455.7501000226379Q1310.3758148413826 453.6257854102994 1310.3758148413826 453.4351417912434L1310.3758148413826 453.4351417912434Q1309.0413095079903 451.7193492197392 1308.360439439933 449.6222694101229Q1307.7068041745983 447.4979547977844 1307.325516936486 445.40087498816814L1307.325516936486 445.40087498816814Q1306.944229698374 443.6850824166639 1306.4540032493728 442.13269866149346Q1305.991011603094 440.60754970904526 1305.2012023241477 439.4636879947091L1305.2012023241477 439.4636879947091Q1304.8199150860355 428.3518884840152 1307.325516936486 420.69890891905203Q1309.8038839842145 413.0459293540888 1312.500129453721 405.9376458435714L1312.500129453721 405.9376458435714Q1314.0252784061693 402.12477346245095 1315.5504273586175 398.20296187044136Q1317.0755763110656 394.2811502784317 1318.246672828124 390.05975585647695L1318.246672828124 390.05975585647695L1319.9624653996284 388.15331966591674Q1321.2969707330203 385.07578695829807 1322.1684844201336 383.0604115568487Q1323.0127633045245 381.04503615539926 1323.993216202527 378.94795634578304L1323.993216202527 378.94795634578304Q1324.5651470596952 377.6134510123909 1325.028138705974 376.3606500871656Q1325.518365154975 375.1078491619403 1325.8996523930873 374.15463106666016L1325.8996523930873 374.15463106666016Q1324.755790678751 374.15463106666016 1323.802572583471 374.2635702775493Q1322.8221196854686 374.3452746857162 1321.8689015901884 374.5359183047722L1321.8689015901884 374.5359183047722Q1320.7250398758524 374.7265619238282 1319.771821780572 374.8355011347174Q1318.8186036852921 374.9172055428843 1317.865385590012 374.9172055428843L1317.865385590012 374.9172055428843Q1316.5036454538974 374.9172055428843 1315.9317145967293 374.7265619238282L1315.9317145967293 374.7265619238282Q1313.8346347871134 375.7070148218306 1311.3290329366628 375.7070148218306L1311.3290329366628 375.7070148218306L1309.4225967461025 375.7070148218306Q1308.8506658889341 375.7070148218306 1308.360439439933 375.5980756109415Q1307.897447793654 375.48913640005236 1307.5161605555422 375.48913640005236L1307.5161605555422 375.48913640005236Q1305.609724364982 375.48913640005236 1304.4386278479235 376.0883020599427L1304.4386278479235 376.0883020599427Q1302.1509044192512 376.0883020599427 1300.0538246096348 376.0883020599427L1300.0538246096348 376.0883020599427L1298.1201536163524 376.0883020599427Q1297.7388663782403 376.0883020599427 1297.1669355210724 376.17000646810953Q1296.5950046639043 376.2789456789987 1296.2137174257923 376.2789456789987L1296.2137174257923 376.2789456789987Q1294.8792120924 376.2789456789987 1293.354063139952 375.97936284905353Q1291.8016793847814 375.7070148218306 1290.0858868132773 374.7265619238282L1290.0858868132773 374.7265619238282Q1287.7981633846048 371.6762640189319 1287.0355889083808 371.48562039987587L1287.0355889083808 371.48562039987587L1285.2925615341544 369.1706621684813Q1285.1019179150983 368.0268004541452 1284.7206306769863 366.99187795069815Q1284.339343438874 365.9297206445289 1283.9580562007623 364.5952153111367L1283.9580562007623 364.5952153111367Q1283.1954817245382 362.66154431785424 1282.514611656481 360.4827601000711Q1281.8609763911459 358.2767410795657 1281.8609763911459 355.19920837194707L1281.8609763911459 355.19920837194707Q1282.051620010202 353.67405941949886 1282.6235508673699 352.9114849432748Q1283.1954817245382 352.14891046705065 1283.57676896265 351.57697960988264L1283.57676896265 351.57697960988264L1284.1486998198184 348.69009052132L1286.6270668675465 348.88073414037603L1291.9923230038376 348.88073414037603Q1298.1201536163524 348.88073414037603 1304.4386278479235 348.4177424940971Q1310.7571020794944 347.9275160450959 1317.4568635491778 347.35558518792783L1317.4568635491778 347.35558518792783Q1321.2969707330203 346.97429794981576 1325.21878232503 346.59301071170376Q1329.1405939170395 346.2117234735917 1333.3619883389943 345.8304362354796L1333.3619883389943 345.8304362354796Q1334.1245628152185 344.08740886125315 1334.8871372914425 342.56225990880495L1334.8871372914425 342.56225990880495L1336.820808284725 341.60904181352487Q1340.2523934277335 341.4183981944688 1341.695837972015 342.4805555006381Q1343.1392825162961 343.5154780040851 1344.0925006115763 344.4686960993652L1344.0925006115763 344.4686960993652Q1348.313895033531 344.08740886125315 1352.6169938636526 343.62441721497424Q1356.9200926937744 343.1341907659731 1361.332130734785 342.37161628974894L1361.332130734785 342.37161628974894Q1367.8412485854124 341.4183981944688 1374.4320708442062 340.65582371824473Q1381.0501279057223 339.89324924202066 1387.1779585182373 339.89324924202066L1387.1779585182373 339.89324924202066Q1389.8469691850219 339.89324924202066 1392.3525710354725 340.08389286107666Q1394.8309380832006 340.27453648013267 1396.928017892817 340.65582371824473L1396.928017892817 340.65582371824473L1398.8616888860993 341.99032905163693Q1399.4336197432674 343.1341907659731 1400.4957770494368 344.08740886125315Q1401.5306995528838 345.06786175925555 1402.6745612672198 346.0210798545357L1402.6745612672198 346.0210798545357Q1404.9895194986143 348.1181596641519 1407.2772429272866 350.97781394999225Q1409.5922011586813 353.86470303855486 1408.993035498791 359.4206027939018L1408.993035498791 359.4206027939018Q1407.467886546343 361.7083262225741 1406.7053120701185 362.08961346068617L1406.7053120701185 362.08961346068617L1404.9895194986143 364.4045716920807L1403.0558485053318 364.2139280730247Q1401.9119867909958 364.2139280730247 1400.9587686957157 364.4862761002476Q1400.0055506004355 364.7858589301928 1399.0523325051554 365.1671461683048L1399.0523325051554 365.1671461683048Q1398.2897580289314 365.54843340641685 1397.5271835527074 365.82078143363975Q1396.737374273761 366.1203642635849 1395.7841561784808 366.3110078826409L1395.7841561784808 366.3110078826409Q1394.0683636069766 366.3110078826409 1393.0062063008072 366.2020686717518Q1391.9712837973602 366.1203642635849 1390.800187280302 366.1203642635849Z " fill="#c9aa6e" transform="matrix(0.6209565809425163,0,0,0.6209565809425163,0,57.70818930859119)"/></g></svg>